<svg id="Comment_Icon" data-name="Comment Icon" xmlns="http://www.w3.org/2000/svg" width="36" height="34.2" viewBox="0 0 36 34.2">
  <g id="Comment_Icon-2" data-name="Comment Icon">
    <path id="Shape" d="M18,0C8.075,0,0,7.267,0,16.2a14.977,14.977,0,0,0,2.861,8.762C2.506,28.885,1.556,31.8.176,33.176A.6.6,0,0,0,.6,34.2a.571.571,0,0,0,.084-.006,32.074,32.074,0,0,0,9.97-3.2A19.535,19.535,0,0,0,18,32.4c9.925,0,18-7.267,18-16.2S27.925,0,18,0Z" transform="translate(0)" fill="#d1d1d6"/>
  </g>
</svg>
