<svg xmlns="http://www.w3.org/2000/svg" width="34.214" height="34.217" viewBox="0 0 34.214 34.217">
  <g id="home" transform="translate(0 0.001)">
    <path id="Path_1" data-name="Path 1" d="M33.3,14.882l0,0L19.335.922a3.149,3.149,0,0,0-4.455,0L.929,14.873l-.014.014a3.149,3.149,0,0,0,2.1,5.367c.032,0,.065,0,.1,0h.556V30.53a3.691,3.691,0,0,0,3.687,3.686h5.461a1,1,0,0,0,1-1V25.161A1.684,1.684,0,0,1,15.5,23.479h3.221A1.684,1.684,0,0,1,20.4,25.161v8.053a1,1,0,0,0,1,1h5.461A3.691,3.691,0,0,0,30.55,30.53V20.259h.516A3.15,3.15,0,0,0,33.3,14.882Zm0,0" fill="#1de8f1"/>
    <path id="Path_2" data-name="Path 2" d="M272.161,14.882l0,0L258.2.922A3.129,3.129,0,0,0,255.973,0h0v23.48h1.611a1.684,1.684,0,0,1,1.682,1.682v8.053a1,1,0,0,0,1,1h5.461a3.691,3.691,0,0,0,3.687-3.686V20.259h.516a3.15,3.15,0,0,0,2.229-5.376Zm0,0" transform="translate(-238.866)" fill="#00c7ce"/>
  </g>
</svg>
